<svg xmlns="http://www.w3.org/2000/svg" viewBox="0.26 0.26 181.55 79.66">
<path class="ulke-anahat" d="M 158.1489,59.660352 C 158.3873,59.544053 158.74495,59.36959 159.01396,59.164601 C 159.49078,58.931959 159.9067,58.876758 160.23674,58.494393 C 160.56691,58.112047 161.27218,55.775556 161.83479,55.870046 C 162.51677,55.906462 162.98487,56.563678 163.60864,56.480844 C 164.23241,56.397998 164.74567,55.483498 165.45814,55.431191 C 167.03278,55.179738 171.16189,57.593572 172.95331,56.424688 C 174.86395,55.197652 172.70186,54.850021 174.95548,54.931585 C 177.89113,55.049526 175.4366,57.279759 176.57788,58.863191 C 177.07657,59.431715 178.97695,56.217088 180.10821,55.812993 C 180.64337,55.699588 181.91254,56.335022 181.79922,55.799968 C 180.88645,52.112674 181.4474,55.381246 179.5443,52.841041 C 178.51939,51.49607 179.4572,49.636447 179.46015,49.33988 C 179.37449,49.012754 176.92458,47.772366 176.65856,47.680749 C 176.30375,47.558593 175.31938,48.112503 175.38323,47.638475 C 175.51422,46.393878 176.4799,44.742268 176.99613,43.531136 C 177.14885,43.087693 177.50944,42.616617 177.57336,42.142615 C 177.50816,39.739246 175.9072,42.660167 175.59757,40.966263 C 175.65858,40.788881 175.02639,35.710133 175.02639,35.710133 C 174.1148,34.900203 174.06379,37.06517 173.76581,34.184808 C 173.74131,33.68032 174.16286,33.031861 174.13821,32.527327 C 174.0001,31.487753 172.34557,30.818808 172.14938,29.659971 C 171.92258,28.589831 175.02388,29.955314 175.72034,28.508666 C 176.69169,26.263791 174.15197,22.115481 179.01525,25.278154 L 179.25365,25.161836 C 178.37267,24.263228 176.93182,22.973458 176.2252,22.432573 C 173.39883,20.268875 171.39076,22.355178 167.72398,21.191825 C 167.45783,21.100182 168.38117,20.723687 168.26483,20.485233 C 168.1239,19.742245 167.3868,19.290025 167.03782,18.574657 C 166.42873,17.17444 167.92937,15.409425 168.09078,14.076124 C 168.35266,11.586958 165.54221,10.817658 165.04646,9.9525182 C 164.87197,9.5948282 165.14387,9.0932182 164.96939,8.7355082 C 164.79496,8.3778482 164.47075,8.1670082 164.1742,8.1640782 C 163.66965,8.1887582 163.22037,8.6292882 162.74626,8.5652482 C 162.48019,8.4736682 162.66347,7.9415082 162.42802,7.7612182 C 162.1619,7.6695982 161.68205,8.1988282 161.685,7.9022382 C 161.59921,7.5750682 162.22291,7.4922282 162.3451,7.1374582 C 162.64762,6.5471782 161.1951,6.4438582 160.63538,6.0527072 C 160.13371,5.7807872 159.81247,5.2733272 159.28027,5.0900972 C 159.10289,5.0290272 159.12759,5.5335572 159.00837,5.5917072 C 157.37846,5.4272872 159.04762,4.6131572 158.72638,4.1057577 C 158.52128,3.8366877 158.10259,4.1885777 157.77543,4.2743177 C 157.35959,4.3295477 156.73884,4.1157877 156.43927,4.4094677 C 155.98999,4.8499972 156.27775,5.7427472 155.82853,6.1832982 C 155.44015,6.4463782 154.93865,6.1744982 154.55338,6.1410372 C 153.27826,6.0988072 151.88978,5.5215072 150.6392,5.9837572 C 150.19291,6.1276972 150.2147,6.9288482 149.64905,7.1308982 C 149.20269,7.2748382 148.73165,6.9142382 148.28821,6.7615382 C 147.84469,6.6088082 147.37077,6.5448182 146.83857,6.3615882 L 146.66118,6.3004982 C 145.39618,8.2458582 144.19514,9.7172182 141.72185,10.849678 C 141.36416,11.024148 140.95125,10.782768 140.68221,10.987738 C 139.07111,11.921088 136.54985,14.921973 134.50121,15.109402 C 133.99666,15.134103 133.55907,14.388176 133.08506,14.324179 C 132.69974,14.290708 132.39725,14.880995 132.01198,14.847524 C 131.62666,14.814059 131.36356,14.425856 131.00879,14.3037 C 130.62345,14.270235 130.20465,14.622042 129.79174,14.380643 C 129.70312,14.35013 128.3234,12.88301 127.63856,13.143226 C 127.07295,13.345296 126.85917,13.966128 126.41272,14.11002 C 125.99697,14.165286 125.67568,13.65782 125.25975,13.71304 C 124.81348,13.856971 124.66072,14.300401 124.2144,14.444339 C 123.52956,14.704555 122.70076,14.518389 122.01594,14.778598 C 120.85417,15.27143 120.55179,15.861749 119.33186,16.235344 C 117.87346,16.725218 114.88264,16.191414 113.55236,15.733382 C 110.35951,14.634 114.02919,15.500734 112.41108,14.149938 C 111.46895,13.428732 110.53107,15.288303 110.11521,15.34353 C 109.40278,15.395818 108.72666,14.766189 108.04773,14.433232 C 107.98955,14.313962 108.08118,14.047921 107.9038,13.98683 C 107.16375,13.831216 106.32912,14.238276 105.56148,13.874754 C 105.29536,13.783111 105.6284,13.104139 105.42339,12.835153 C 105.07154,12.416378 104.54234,11.936528 103.92149,11.722758 C 100.43206,10.620468 100.92617,14.659604 97.986408,11.960868 C 97.105348,11.062278 97.519908,8.1296582 96.305828,7.9100082 C 95.862418,7.7573382 95.495938,8.8216082 95.113548,8.4915382 C 94.789348,8.2807082 95.865348,7.4607382 95.421898,7.3080482 C 94.504468,7.0913582 91.955446,9.8842582 89.248276,7.6624282 C 86.394326,5.2908672 88.837006,4.2470377 88.720746,4.0085877 C 88.460526,3.3237477 87.540146,3.4036677 86.919306,3.1898977 C 86.653246,3.0982877 86.448246,2.8292877 86.298486,2.9761277 C 85.879726,3.3279577 85.812776,4.0985477 85.305336,4.4198477 C 83.718976,5.8577472 74.067646,3.9234077 71.425766,4.1049877 C 70.239336,4.0932877 68.863806,5.2069472 67.821296,5.6416172 C 66.867466,6.1068372 65.534196,5.9453672 64.552746,6.2026582 C 61.724696,7.2129982 59.270286,9.4432582 56.466946,10.958118 C 55.721056,11.395728 54.498196,12.065928 53.724706,12.295618 C 53.605456,12.353748 53.192546,12.112378 53.131466,12.289768 C 52.165936,13.941421 53.496296,14.399505 51.383646,15.060923 C 51.145186,15.177228 50.762796,14.847144 50.466196,14.844225 C 48.062786,14.909511 49.656296,15.755819 46.876356,14.897822 C 45.900766,14.5619 43.661726,12.997292 42.652676,13.046661 C 42.356046,13.043749 42.292076,13.517731 41.964926,13.603503 C 40.683936,14.154474 38.787976,13.898466 37.515766,13.559632 C 35.946966,13.217845 32.457506,12.115528 32.307746,12.262358 C 31.678136,12.93844 31.195366,13.764268 30.712606,14.590089 C 30.049526,15.651452 32.266776,16.414913 32.502326,16.595201 C 32.679696,16.656279 32.945776,16.747909 32.973376,16.955818 C 32.970466,17.25243 32.404866,17.454494 32.551696,17.604263 C 32.787216,17.784584 33.147836,17.313495 33.413906,17.405132 C 33.560776,17.554894 33.319366,17.967798 33.496746,18.02887 C 35.120796,18.786479 37.208756,17.620534 38.921476,18.408656 C 40.398676,19.016529 35.650016,19.266339 35.264706,19.232855 C 34.998626,19.141251 35.212416,18.520412 35.004486,18.548025 C 34.796576,18.575632 28.522606,20.085943 28.045686,20.318552 C 26.223806,21.576134 32.904796,20.900435 30.364626,22.803524 C 29.857176,23.124831 26.217936,22.169353 24.915196,21.919196 C 22.398416,21.449416 19.839386,22.254771 19.781226,22.135541 C 19.579166,21.569936 21.126226,21.110568 20.804906,20.603122 C 20.425466,19.976432 19.385876,20.114492 18.645806,19.958885 C 18.526566,20.017037 18.554196,20.224952 18.465506,20.1944 C 18.288126,20.133335 18.174736,19.598282 18.202366,19.806196 C 18.315756,20.34125 19.111036,20.912713 18.808566,21.503 C 18.237126,22.298296 16.989606,22.463969 16.011076,22.42466 C 13.904276,22.492885 14.132646,20.389002 13.719756,20.14761 C 12.627866,19.573234 11.546026,20.986423 10.598026,20.858416 C 10.212746,20.824958 8.824246,20.24765 8.078326,20.685248 C 7.332406,21.122847 6.907806,22.067905 6.161886,22.50551 C 5.804216,22.679961 5.421836,22.34989 5.152846,22.554892 C 4.853296,22.848566 4.997206,23.294948 4.905596,23.561002 C 4.664226,23.973926 4.481006,24.506074 4.092776,24.769209 C 3.377396,25.118122 2.554486,24.338751 2.218566,25.314341 C 1.8186461,26.763914 2.283846,27.717749 1.9174061,28.782031 C 1.8839261,29.167342 0.02856604,30.810215 1.2978461,31.445675 C 1.4752161,31.506759 7.890166,30.739411 8.572076,30.775814 C 8.780006,30.748194 9.195846,30.692974 9.046086,30.839824 C 8.444076,31.723805 7.004576,33.311431 6.078336,33.984571 C 5.928576,34.131421 5.221986,33.590497 5.631976,34.128489 C 6.011416,34.755172 8.051296,35.457549 7.859286,36.879528 C 7.706596,37.322991 6.605926,37.638427 6.808006,38.204039 C 7.012996,38.473025 10.098296,38.444142 9.257846,39.444414 C 8.356326,40.622075 5.329166,40.770208 5.586446,41.751636 C 5.843736,42.733091 6.923926,44.493912 7.162396,44.377607 C 7.608766,44.233683 8.113306,44.209001 8.498606,44.242459 C 8.883906,44.275917 9.773736,44.284701 9.651586,44.639466 C 9.501806,44.786309 6.260866,45.555261 5.906116,45.433119 C 5.432126,45.369096 5.532516,44.213203 5.086136,44.357121 C 4.520526,44.559211 5.126746,46.256008 4.744356,45.925937 C 4.566976,45.864853 4.219706,41.975462 3.779186,41.526168 C 3.574186,41.257175 2.983886,40.954711 2.684366,41.248405 C 2.235076,41.688929 2.434196,42.551127 2.309116,43.202512 C 2.217516,43.468579 1.8598061,43.643042 2.006656,43.792805 C 2.389036,44.122882 3.517326,44.015348 3.306486,44.339561 C 2.884786,44.98802 1.964426,45.067934 1.2214361,45.208926 C 1.0440661,45.147842 1.0499161,44.554623 0.90015609,44.701473 C 0.75038609,44.848323 1.1327561,45.178381 0.98298609,45.325224 C 0.89135609,45.591298 0.09023604,45.613067 0.29522609,45.882073 C 0.70520609,46.420058 1.5368761,46.309592 2.096646,46.700741 C 2.274026,46.761819 3.296076,48.403408 3.534516,48.28711 C 4.219376,48.026888 4.613446,47.170527 5.356416,47.029535 C 6.188076,46.919069 5.427556,48.839731 6.045466,49.350096 C 6.369686,49.560957 6.880066,48.943037 7.234826,49.065212 C 7.678266,49.217888 9.828596,50.751963 9.828596,50.751963 C 9.856216,50.959871 9.655436,53.271669 9.147976,53.592969 C 8.432606,53.941883 6.151376,53.652398 6.769236,54.162777 C 7.417696,54.584477 8.307516,54.593248 8.806216,55.161759 C 9.332486,55.938231 7.388446,57.550559 8.244816,57.944653 C 9.012486,58.308175 9.825306,57.099968 10.534836,57.34428 C 11.213826,57.677276 11.143976,58.74449 11.642666,59.313022 C 11.789496,59.462778 12.296956,59.14149 12.235876,59.318866 C 12.069846,64.122776 5.999946,56.973264 8.087556,61.858731 C 8.378336,62.454849 9.393236,61.812248 9.925376,61.995508 C 10.812276,62.300885 10.121576,63.154313 11.280396,62.958101 C 11.488336,62.930487 11.225186,62.542264 11.313876,62.57279 C 12.056856,62.431804 12.644236,63.030881 13.356676,62.97858 C 14.188346,62.868113 16.148316,62.650145 16.652826,62.625431 C 17.453986,62.603682 18.734936,62.052705 18.964636,62.826239 C 19.916826,65.535023 15.934536,63.270965 15.690246,63.980501 C 15.507006,64.512642 16.210676,65.350173 15.733756,65.582775 C 15.018376,65.931696 14.314716,65.094152 13.544126,65.027242 C 12.002916,64.893384 10.364256,65.618799 8.936426,66.020007 C 8.370836,66.222097 10.150486,66.239651 10.713166,66.33418 C 11.156616,66.486875 11.477906,66.994322 11.805056,66.908563 C 12.251436,66.764645 12.052286,65.90242 12.498656,65.758508 C 13.152976,65.586984 13.801406,66.008665 14.452776,66.133746 C 16.498516,66.24291 16.537826,65.264394 16.565426,65.472315 C 16.832776,68.441342 15.865976,67.215582 14.792916,67.738952 C 14.554456,67.855244 15.172376,68.365642 15.410826,68.249331 C 15.679816,68.044342 19.259596,66.00318 19.290156,65.914476 C 19.708906,65.562649 19.687146,64.761516 20.102986,64.706282 C 22.775386,64.435987 20.917106,66.375479 21.354696,67.121393 C 21.764686,67.659385 22.712686,67.787385 23.241906,68.267225 C 23.419266,68.328316 23.266576,68.77176 23.385826,68.713594 C 24.547586,68.220789 23.259446,66.487569 24.562176,66.737732 C 27.198216,67.149373 25.646596,71.079355 25.762906,71.317809 C 27.167306,73.289457 28.830656,73.06857 30.720756,73.917783 C 30.986826,74.0094 30.800686,74.838147 31.274686,74.902157 C 32.103416,75.088316 36.007436,73.257988 36.215346,73.230388 C 36.842036,72.850929 38.233466,73.131631 38.674006,73.580925 C 38.820826,73.730707 38.368616,74.467831 38.607056,74.351526 C 39.203216,74.060765 39.713596,73.442871 39.927356,72.822033 C 40.049506,72.467274 39.428686,72.253495 39.520296,71.987434 C 39.614846,71.424735 40.241536,71.045289 40.602136,70.574252 C 41.323356,69.632126 40.038176,67.602293 41.471846,66.607853 C 41.979286,66.286565 46.511276,66.954207 47.251326,67.109828 C 47.517406,67.201451 54.958606,70.656509 55.105436,70.806252 C 58.228416,72.972842 56.722006,75.331123 61.211756,77.273894 C 63.456626,78.245276 61.719196,76.95258 63.948156,76.52961 C 64.483216,76.416218 64.951326,77.073447 65.486446,76.960081 C 65.813576,76.874282 65.730756,76.250564 65.969186,76.134246 C 66.742716,75.904556 69.614276,76.496499 70.030116,76.441285 C 70.476496,76.297374 70.778946,75.707067 71.225316,75.563143 C 71.521906,75.566049 71.308136,76.186894 71.604786,76.189826 C 71.693446,76.220359 73.496516,73.865043 73.643376,74.014819 C 74.086776,74.167481 73.928266,75.204169 74.432776,75.179475 C 76.389846,75.258126 75.337236,73.705215 75.700816,72.937539 C 76.547066,71.344028 79.353356,69.53257 80.698346,68.507603 C 83.296666,66.723725 87.491106,71.54098 88.264606,71.311284 C 88.949436,71.051048 89.371136,70.402609 90.025446,70.231071 C 90.263886,70.114793 92.563998,71.502005 91.994208,69.123291 C 91.908386,68.796133 90.768416,70.090079 90.979246,69.765873 C 91.309366,69.383514 92.287848,69.422817 92.143908,68.976408 C 92.088718,68.560605 91.251166,69.264257 90.838296,69.022898 C 90.602706,68.842563 91.257016,68.671032 91.584196,68.585286 C 92.061108,68.352677 92.742918,68.389034 93.219928,68.156464 C 93.996318,67.630142 94.307638,66.150063 95.255588,66.278044 C 96.619428,66.350837 97.219778,68.640853 97.149938,69.708093 C 97.085868,70.18203 92.696198,73.134818 92.748428,73.847221 C 92.883618,75.183448 94.920648,76.182463 94.609328,77.662555 C 94.606448,77.959181 94.306928,78.252862 93.918678,78.516023 L 93.918678,78.516023 C 94.631118,78.463715 95.919218,80.196902 96.426698,79.875628 C 97.022848,79.584867 96.588128,78.54234 96.979318,77.982593 C 97.309378,77.600208 98.138158,77.786387 98.468208,77.403989 C 98.468208,77.403989 98.730068,74.914815 98.730068,74.914815 C 98.791148,74.737446 101.66849,74.73613 101.90699,74.619852 C 102.17603,74.414869 100.91547,72.889564 100.79918,72.65111 C 100.39507,71.519906 100.78495,68.082768 101.653,67.290398 C 101.92193,67.085369 105.23405,68.126626 105.46663,68.60354 C 105.52477,68.722751 104.47352,70.047275 105.75153,69.792877 C 106.07864,69.707112 106.05404,69.202617 106.26193,69.174997 C 107.33208,68.948232 108.39344,69.611312 109.46359,69.384561 C 112.37441,68.997968 115.41201,64.786013 118.78515,65.649861 C 120.05742,65.988716 120.93259,67.48053 122.26291,67.938594 C 124.8349,68.824185 128.52513,67.614722 131.11188,67.017314 C 135.33419,65.991059 138.33539,62.460995 142.44148,61.196272 C 144.96996,60.479608 147.9883,61.221307 150.60556,60.535202 C 151.79485,60.250259 154.02385,59.827334 155.04171,58.888107 C 155.61028,58.389444 156.7008,56.08641 157.74762,58.232534 C 158.01073,58.620731 158.12399,59.155785 158.1489,59.660352 z M 22.735396,2.3195777 L 22.558016,2.2585077 C 21.995326,2.1639677 21.493716,1.8920377 20.900516,1.8861877 C 20.099376,1.9079677 19.353476,2.3455477 18.579946,2.5752377 C 18.372006,2.6028477 18.427256,3.0186877 18.369086,2.8994777 C 16.481906,1.7536077 16.410776,-0.05656233 14.004436,0.30532767 C 14.004436,0.30532767 11.916466,1.4712877 11.916466,1.4712877 C 11.204026,1.5235977 10.558516,0.80528767 9.962366,1.0960477 C 9.277536,1.3562777 9.504286,2.4263977 8.966286,2.8363777 C 8.220366,3.2739977 6.538196,2.3971477 6.878336,4.0023477 C 8.676826,5.1176472 10.696216,7.8962882 8.816156,9.0346482 C 7.474126,9.7629982 6.681746,8.8949382 5.716236,10.546608 L 5.540136,13.362909 C 5.237676,13.953209 3.293626,15.565542 2.550636,15.706528 L 2.126026,16.6516 C 2.242316,16.890053 2.566546,17.100887 2.948926,17.430984 C 4.126576,18.332512 10.611386,16.497975 9.645846,18.149632 C 9.040926,19.330212 4.084336,19.607615 3.418346,20.96561 C 3.326726,21.231651 3.828326,21.503582 3.825406,21.800202 C 3.822496,22.096821 3.730876,22.362882 3.550566,22.598397 C 3.278636,23.100025 2.138646,24.393977 2.704256,24.191907 C 4.877986,23.353087 6.026766,21.169297 8.087116,19.795417 C 9.939536,18.44915 12.367646,18.888392 14.192456,17.33421 C 14.760976,16.835534 15.360076,16.248153 15.870446,15.630246 C 16.142366,15.128664 16.001366,14.385669 16.508806,14.064369 C 18.688406,12.632348 18.698476,14.619908 20.686046,14.609855 C 20.982656,14.612781 20.988496,14.019568 21.346176,13.845105 C 22.031026,13.584876 22.685306,13.413351 23.455916,13.480274 C 25.740096,13.473159 25.952236,16.02633 26.272236,13.656373 C 26.247546,13.151839 26.199456,15.020194 26.673456,15.084204 C 27.413516,15.239818 29.783456,15.559835 30.293826,14.941935 C 30.743136,14.501378 30.602136,13.758416 30.993296,13.198642 C 31.115456,12.843891 32.038736,12.467368 31.656376,12.137298 C 30.007646,10.875168 25.506216,10.118818 23.688876,7.9057782 C 20.962876,4.5862072 22.778946,3.9218477 22.735396,2.3195777 z"/>
</svg>
